{
  "accessors": [
    {
      "bufferView": 2,
      "componentType": 5126,
      "count": 39217,
      "max": [
        15.96432113647461,
        -0.12189800292253494,
        22.31093978881836
      ],
      "min": [
        -11.811796188354492,
        -22.694881439208984,
        -30.627286911010742
      ],
      "type": "VEC3"
    },
    {
      "bufferView": 2,
      "byteOffset": 470604,
      "componentType": 5126,
      "count": 39217,
      "max": [
        0.9999722242355347,
        0.9999534487724304,
        0.9991809725761414
      ],
      "min": [
        -0.9998489022254944,
        -0.9999709725379944,
        -0.9994762539863586
      ],
      "type": "VEC3"
    },
    {
      "bufferView": 1,
      "componentType": 5126,
      "count": 39217,
      "max": [
        0.9997149705886841,
        0.3375050127506256
      ],
      "min": [
        7.79999973019585e-05,
        0.00031900001340545714
      ],
      "type": "VEC2"
    },
    {
      "bufferView": 0,
      "componentType": 5125,
      "count": 84528,
      "type": "SCALAR"
    }
  ],
  "asset": {
    "extras": {
      "author": "dorusvandenoord (https://sketchfab.com/dorusvandenoord)",
      "license": "CC-BY-4.0 (http://creativecommons.org/licenses/by/4.0/)",
      "source": "https://sketchfab.com/3d-models/nike-air-presto-x-off-white-black-7bffa20a02bb4be19832570cf7fabccb",
      "title": "Nike Air Presto x Off-White Black"
    },
    "generator": "Sketchfab-12.65.0",
    "version": "2.0"
  },
  "bufferViews": [
    {
      "buffer": 0,
      "byteLength": 338112,
      "name": "floatBufferViews",
      "target": 34963
    },
    {
      "buffer": 0,
      "byteLength": 313736,
      "byteOffset": 338112,
      "byteStride": 8,
      "name": "floatBufferViews",
      "target": 34962
    },
    {
      "buffer": 0,
      "byteLength": 941208,
      "byteOffset": 651848,
      "byteStride": 12,
      "name": "floatBufferViews",
      "target": 34962
    }
  ],
  "buffers": [
    {
      "byteLength": 1593056,
      "uri": "scene.bin"
    }
  ],
  "extensionsUsed": [
    "KHR_materials_unlit"
  ],
  "images": [
    {
      "uri": "textures/material_0_baseColor.jpeg"
    }
  ],
  "materials": [
    {
      "doubleSided": true,
      "extensions": {
        "KHR_materials_unlit": {}
      },
      "name": "material_0",
      "pbrMetallicRoughness": {
        "baseColorTexture": {
          "index": 0
        },
        "metallicFactor": 0.0
      }
    }
  ],
  "meshes": [
    {
      "name": "Object_0",
      "primitives": [
        {
          "attributes": {
            "NORMAL": 1,
            "POSITION": 0,
            "TEXCOORD_0": 2
          },
          "indices": 3,
          "material": 0,
          "mode": 4
        }
      ]
    }
  ],
  "nodes": [
    {
      "children": [
        1
      ],
      "matrix": [
        0.9995698928833008,
        0.02931065484881401,
        0.0009537555160932308,
        0.0,
        0.029297806322574615,
        -0.9995049238204956,
        0.011468811891972797,
        0.0,
        0.001289441715925932,
        -0.01143593620508887,
        -0.9999337792396545,
        0.0,
        0.34049591422080994,
        -15.66928291320801,
        7.379424095153805,
        1.0
      ],
      "name": "Sketchfab_model"
    },
    {
      "children": [
        2
      ],
      "name": "air_presto.obj.cleaner.materialmerger.gles"
    },
    {
      "mesh": 0,
      "name": "Object_2"
    }
  ],
  "samplers": [
    {
      "magFilter": 9729,
      "minFilter": 9987,
      "wrapS": 10497,
      "wrapT": 10497
    }
  ],
  "scene": 0,
  "scenes": [
    {
      "name": "Sketchfab_Scene",
      "nodes": [
        0
      ]
    }
  ],
  "textures": [
    {
      "sampler": 0,
      "source": 0
    }
  ]
}
