{
  "accessors": [
    {
      "bufferView": 2,
      "componentType": 5126,
      "count": 65532,
      "max": [
        161.2283477783203,
        55.42838668823242,
        54.2428092956543
      ],
      "min": [
        -33.80766296386719,
        -30.95601463317871,
        -55.6993293762207
      ],
      "type": "VEC3"
    },
    {
      "bufferView": 2,
      "byteOffset": 786384,
      "componentType": 5126,
      "count": 65532,
      "max": [
        1.0,
        0.999998927116394,
        0.9999892115592957
      ],
      "min": [
        -1.0,
        -0.9983659386634827,
        -0.9980353713035583
      ],
      "type": "VEC3"
    },
    {
      "bufferView": 1,
      "componentType": 5126,
      "count": 65532,
      "max": [
        0.6389920115470886,
        0.9992190003395081
      ],
      "min": [
        0.07778599858283997,
        0.6384339928627014
      ],
      "type": "VEC2"
    },
    {
      "bufferView": 0,
      "componentType": 5125,
      "count": 320454,
      "type": "SCALAR"
    },
    {
      "bufferView": 2,
      "byteOffset": 1572768,
      "componentType": 5126,
      "count": 65532,
      "max": [
        159.94387817382813,
        50.964454650878906,
        72.6427001953125
      ],
      "min": [
        -117.80766296386719,
        -50.70970916748047,
        -58.39118957519531
      ],
      "type": "VEC3"
    },
    {
      "bufferView": 2,
      "byteOffset": 2359152,
      "componentType": 5126,
      "count": 65532,
      "max": [
        1.0,
        0.9999814033508301,
        0.9999995231628418
      ],
      "min": [
        -1.0,
        -0.9999982118606567,
        -0.9999956488609314
      ],
      "type": "VEC3"
    },
    {
      "bufferView": 1,
      "byteOffset": 524256,
      "componentType": 5126,
      "count": 65532,
      "max": [
        0.9372010231018066,
        0.9992190003395081
      ],
      "min": [
        0.15367700159549713,
        0.29681500792503357
      ],
      "type": "VEC2"
    },
    {
      "bufferView": 0,
      "byteOffset": 1281816,
      "componentType": 5125,
      "count": 312585,
      "type": "SCALAR"
    },
    {
      "bufferView": 2,
      "byteOffset": 3145536,
      "componentType": 5126,
      "count": 65532,
      "max": [
        151.99234008789063,
        49.21629333496094,
        75.3876953125
      ],
      "min": [
        -123.02964782714844,
        -51.995277404785156,
        -51.89423751831055
      ],
      "type": "VEC3"
    },
    {
      "bufferView": 2,
      "byteOffset": 3931920,
      "componentType": 5126,
      "count": 65532,
      "max": [
        1.0,
        0.9999983310699463,
        0.9999825358390808
      ],
      "min": [
        -1.0,
        -0.9999518990516663,
        -0.9962446689605713
      ],
      "type": "VEC3"
    },
    {
      "bufferView": 1,
      "byteOffset": 1048512,
      "componentType": 5126,
      "count": 65532,
      "max": [
        0.8988109827041626,
        0.6618049740791321
      ],
      "min": [
        0.13847999274730682,
        0.005067999940365553
      ],
      "type": "VEC2"
    },
    {
      "bufferView": 0,
      "byteOffset": 2532156,
      "componentType": 5125,
      "count": 323271,
      "type": "SCALAR"
    },
    {
      "bufferView": 2,
      "byteOffset": 4718304,
      "componentType": 5126,
      "count": 65532,
      "max": [
        132.39234924316406,
        49.5076904296875,
        86.13555145263672
      ],
      "min": [
        -125.56399536132813,
        -44.269046783447266,
        -54.493804931640625
      ],
      "type": "VEC3"
    },
    {
      "bufferView": 2,
      "byteOffset": 5504688,
      "componentType": 5126,
      "count": 65532,
      "max": [
        1.0,
        0.9999107122421265,
        0.9999887943267822
      ],
      "min": [
        -1.0,
        -0.9999958276748657,
        -0.9999882578849792
      ],
      "type": "VEC3"
    },
    {
      "bufferView": 1,
      "byteOffset": 1572768,
      "componentType": 5126,
      "count": 65532,
      "max": [
        0.9974309802055359,
        0.9992190003395081
      ],
      "min": [
        0.0007810000097379088,
        0.0007949999999254942
      ],
      "type": "VEC2"
    },
    {
      "bufferView": 0,
      "byteOffset": 3825240,
      "componentType": 5125,
      "count": 322146,
      "type": "SCALAR"
    },
    {
      "bufferView": 2,
      "byteOffset": 6291072,
      "componentType": 5126,
      "count": 65532,
      "max": [
        154.87384033203125,
        53.21140670776367,
        84.12747192382813
      ],
      "min": [
        -125.80766296386719,
        -51.995277404785156,
        -56.407798767089844
      ],
      "type": "VEC3"
    },
    {
      "bufferView": 2,
      "byteOffset": 7077456,
      "componentType": 5126,
      "count": 65532,
      "max": [
        1.0,
        0.9999415874481201,
        0.9999887943267822
      ],
      "min": [
        -1.0,
        -0.9999730587005615,
        -0.9999984502792358
      ],
      "type": "VEC3"
    },
    {
      "bufferView": 1,
      "byteOffset": 2097024,
      "componentType": 5126,
      "count": 65532,
      "max": [
        0.8793910145759583,
        0.838280975818634
      ],
      "min": [
        0.0007810000097379088,
        0.0010400000028312206
      ],
      "type": "VEC2"
    },
    {
      "bufferView": 0,
      "byteOffset": 5113824,
      "componentType": 5125,
      "count": 298467,
      "type": "SCALAR"
    },
    {
      "bufferView": 2,
      "byteOffset": 7863840,
      "componentType": 5126,
      "count": 65532,
      "max": [
        112.32538604736328,
        41.99380874633789,
        85.7603759765625
      ],
      "min": [
        -127.44691467285156,
        -51.76466369628906,
        -52.77536392211914
      ],
      "type": "VEC3"
    },
    {
      "bufferView": 2,
      "byteOffset": 8650224,
      "componentType": 5126,
      "count": 65532,
      "max": [
        1.0,
        0.9999973773956299,
        0.999968409538269
      ],
      "min": [
        -1.0,
        -0.9996594190597534,
        -0.9981920123100281
      ],
      "type": "VEC3"
    },
    {
      "bufferView": 1,
      "byteOffset": 2621280,
      "componentType": 5126,
      "count": 65532,
      "max": [
        0.896236002445221,
        0.6656249761581421
      ],
      "min": [
        0.1471630036830902,
        0.0015269999857991934
      ],
      "type": "VEC2"
    },
    {
      "bufferView": 0,
      "byteOffset": 6307692,
      "componentType": 5125,
      "count": 304836,
      "type": "SCALAR"
    },
    {
      "bufferView": 2,
      "byteOffset": 9436608,
      "componentType": 5126,
      "count": 65532,
      "max": [
        160.96437072753906,
        55.02738952636719,
        54.89537048339844
      ],
      "min": [
        -72.607666015625,
        -52.325828552246094,
        -58.383609771728516
      ],
      "type": "VEC3"
    },
    {
      "bufferView": 2,
      "byteOffset": 10222992,
      "componentType": 5126,
      "count": 65532,
      "max": [
        1.0,
        0.9999603033065796,
        0.9999980926513672
      ],
      "min": [
        -1.0,
        -0.9998767375946045,
        -0.9999957084655762
      ],
      "type": "VEC3"
    },
    {
      "bufferView": 1,
      "byteOffset": 3145536,
      "componentType": 5126,
      "count": 65532,
      "max": [
        0.9579740166664124,
        0.9983459711074829
      ],
      "min": [
        0.09772299975156784,
        0.3203969895839691
      ],
      "type": "VEC2"
    },
    {
      "bufferView": 0,
      "byteOffset": 7527036,
      "componentType": 5125,
      "count": 304614,
      "type": "SCALAR"
    },
    {
      "bufferView": 2,
      "byteOffset": 11009376,
      "componentType": 5126,
      "count": 65532,
      "max": [
        161.29354858398438,
        55.40999221801758,
        68.7190170288086
      ],
      "min": [
        -111.65945434570313,
        -47.26359558105469,
        -58.38623809814453
      ],
      "type": "VEC3"
    },
    {
      "bufferView": 2,
      "byteOffset": 11795760,
      "componentType": 5126,
      "count": 65532,
      "max": [
        1.0,
        0.9999997019767761,
        0.9999878406524658
      ],
      "min": [
        -1.0,
        -0.9999999403953552,
        -0.9999986290931702
      ],
      "type": "VEC3"
    },
    {
      "bufferView": 1,
      "byteOffset": 3669792,
      "componentType": 5126,
      "count": 65532,
      "max": [
        0.9017770290374756,
        0.9989799857139587
      ],
      "min": [
        0.0007810000097379088,
        0.18327100574970245
      ],
      "type": "VEC2"
    },
    {
      "bufferView": 0,
      "byteOffset": 8745492,
      "componentType": 5125,
      "count": 258270,
      "type": "SCALAR"
    },
    {
      "bufferView": 2,
      "byteOffset": 12582144,
      "componentType": 5126,
      "count": 65104,
      "max": [
        63.992340087890625,
        49.19595718383789,
        76.21412658691406
      ],
      "min": [
        -127.45025634765625,
        -45.163692474365234,
        -50.8270263671875
      ],
      "type": "VEC3"
    },
    {
      "bufferView": 2,
      "byteOffset": 13363392,
      "componentType": 5126,
      "count": 65104,
      "max": [
        1.0,
        0.9999662041664124,
        0.9999747276306152
      ],
      "min": [
        -1.0,
        -0.9999979138374329,
        -0.9999963045120239
      ],
      "type": "VEC3"
    },
    {
      "bufferView": 1,
      "byteOffset": 4194048,
      "componentType": 5126,
      "count": 65104,
      "max": [
        0.8299360275268555,
        0.766202986240387
      ],
      "min": [
        0.13828100264072418,
        0.29851800203323364
      ],
      "type": "VEC2"
    },
    {
      "bufferView": 0,
      "byteOffset": 9778572,
      "componentType": 5125,
      "count": 255354,
      "type": "SCALAR"
    }
  ],
  "asset": {
    "extras": {
      "author": "Arkify (https://sketchfab.com/arkify)",
      "license": "CC-BY-4.0 (http://creativecommons.org/licenses/by/4.0/)",
      "source": "https://sketchfab.com/3d-models/red-adidas-track-shoe-0ba5f1c809994c99b4d8aa97e0ed3413",
      "title": "Red Adidas Track Shoe"
    },
    "generator": "Sketchfab-12.66.0",
    "version": "2.0"
  },
  "bufferViews": [
    {
      "buffer": 0,
      "byteLength": 10799988,
      "name": "floatBufferViews",
      "target": 34963
    },
    {
      "buffer": 0,
      "byteLength": 4714880,
      "byteOffset": 10799988,
      "byteStride": 8,
      "name": "floatBufferViews",
      "target": 34962
    },
    {
      "buffer": 0,
      "byteLength": 14144640,
      "byteOffset": 15514868,
      "byteStride": 12,
      "name": "floatBufferViews",
      "target": 34962
    }
  ],
  "buffers": [
    {
      "byteLength": 29659508,
      "uri": "scene.bin"
    }
  ],
  "images": [
    {
      "uri": "textures/material_0_baseColor.png"
    }
  ],
  "materials": [
    {
      "doubleSided": true,
      "name": "material_0",
      "pbrMetallicRoughness": {
        "baseColorTexture": {
          "index": 0
        },
        "metallicFactor": 0.0,
        "roughnessFactor": 0.6
      }
    }
  ],
  "meshes": [
    {
      "name": "Object_0",
      "primitives": [
        {
          "attributes": {
            "NORMAL": 1,
            "POSITION": 0,
            "TEXCOORD_0": 2
          },
          "indices": 3,
          "material": 0,
          "mode": 4
        }
      ]
    },
    {
      "name": "Object_1",
      "primitives": [
        {
          "attributes": {
            "NORMAL": 5,
            "POSITION": 4,
            "TEXCOORD_0": 6
          },
          "indices": 7,
          "material": 0,
          "mode": 4
        }
      ]
    },
    {
      "name": "Object_2",
      "primitives": [
        {
          "attributes": {
            "NORMAL": 9,
            "POSITION": 8,
            "TEXCOORD_0": 10
          },
          "indices": 11,
          "material": 0,
          "mode": 4
        }
      ]
    },
    {
      "name": "Object_3",
      "primitives": [
        {
          "attributes": {
            "NORMAL": 13,
            "POSITION": 12,
            "TEXCOORD_0": 14
          },
          "indices": 15,
          "material": 0,
          "mode": 4
        }
      ]
    },
    {
      "name": "Object_4",
      "primitives": [
        {
          "attributes": {
            "NORMAL": 17,
            "POSITION": 16,
            "TEXCOORD_0": 18
          },
          "indices": 19,
          "material": 0,
          "mode": 4
        }
      ]
    },
    {
      "name": "Object_5",
      "primitives": [
        {
          "attributes": {
            "NORMAL": 21,
            "POSITION": 20,
            "TEXCOORD_0": 22
          },
          "indices": 23,
          "material": 0,
          "mode": 4
        }
      ]
    },
    {
      "name": "Object_6",
      "primitives": [
        {
          "attributes": {
            "NORMAL": 25,
            "POSITION": 24,
            "TEXCOORD_0": 26
          },
          "indices": 27,
          "material": 0,
          "mode": 4
        }
      ]
    },
    {
      "name": "Object_7",
      "primitives": [
        {
          "attributes": {
            "NORMAL": 29,
            "POSITION": 28,
            "TEXCOORD_0": 30
          },
          "indices": 31,
          "material": 0,
          "mode": 4
        }
      ]
    },
    {
      "name": "Object_8",
      "primitives": [
        {
          "attributes": {
            "NORMAL": 33,
            "POSITION": 32,
            "TEXCOORD_0": 34
          },
          "indices": 35,
          "material": 0,
          "mode": 4
        }
      ]
    }
  ],
  "nodes": [
    {
      "children": [
        1
      ],
      "matrix": [
        0.9953978657722473,
        0.09582839161157608,
        2.1278177355993595e-17,
        0.0,
        0.0,
        2.220446049250313e-16,
        -1.0,
        0.0,
        -0.09582839161157608,
        0.9953978657722473,
        2.21022725848618e-16,
        0.0,
        1.4072142839431763,
        -1.5577542781829834,
        -3.4589093326941787e-16,
        1.0
      ],
      "name": "Sketchfab_model"
    },
    {
      "children": [
        2,
        3,
        4,
        5,
        6,
        7,
        8,
        9,
        10
      ],
      "name": "RedAdidas1.obj.cleaner.materialmerger.gles"
    },
    {
      "mesh": 0,
      "name": "Object_2"
    },
    {
      "mesh": 1,
      "name": "Object_3"
    },
    {
      "mesh": 2,
      "name": "Object_4"
    },
    {
      "mesh": 3,
      "name": "Object_5"
    },
    {
      "mesh": 4,
      "name": "Object_6"
    },
    {
      "mesh": 5,
      "name": "Object_7"
    },
    {
      "mesh": 6,
      "name": "Object_8"
    },
    {
      "mesh": 7,
      "name": "Object_9"
    },
    {
      "mesh": 8,
      "name": "Object_10"
    }
  ],
  "samplers": [
    {
      "magFilter": 9729,
      "minFilter": 9987,
      "wrapS": 10497,
      "wrapT": 10497
    }
  ],
  "scene": 0,
  "scenes": [
    {
      "name": "Sketchfab_Scene",
      "nodes": [
        0
      ]
    }
  ],
  "textures": [
    {
      "sampler": 0,
      "source": 0
    }
  ]
}
